<svg xmlns="http://www.w3.org/2000/svg" width="1000" height="430" viewBox="0 0 1000 430" role="img" aria-label="Werkstatt: Zero-Knowledge-Sicherheit, prozedurale Spiele in Python, Daten und Märkte, Self-Hosting">
<defs><linearGradient id="shine0" x1="0" y1="0" x2="1" y2="0"><stop offset="0" stop-color="#fff" stop-opacity="0"/><stop offset=".5" stop-color="#fff" stop-opacity=".06"/><stop offset="1" stop-color="#fff" stop-opacity="0"/><animateTransform attributeName="gradientTransform" type="translate" values="-1 0;1 0;1 0" keyTimes="0;.35;1" dur="7s" begin="0.0s" repeatCount="indefinite"/></linearGradient><linearGradient id="shine1" x1="0" y1="0" x2="1" y2="0"><stop offset="0" stop-color="#fff" stop-opacity="0"/><stop offset=".5" stop-color="#fff" stop-opacity=".06"/><stop offset="1" stop-color="#fff" stop-opacity="0"/><animateTransform attributeName="gradientTransform" type="translate" values="-1 0;1 0;1 0" keyTimes="0;.35;1" dur="7s" begin="0.8s" repeatCount="indefinite"/></linearGradient><linearGradient id="shine2" x1="0" y1="0" x2="1" y2="0"><stop offset="0" stop-color="#fff" stop-opacity="0"/><stop offset=".5" stop-color="#fff" stop-opacity=".06"/><stop offset="1" stop-color="#fff" stop-opacity="0"/><animateTransform attributeName="gradientTransform" type="translate" values="-1 0;1 0;1 0" keyTimes="0;.35;1" dur="7s" begin="1.6s" repeatCount="indefinite"/></linearGradient><linearGradient id="shine3" x1="0" y1="0" x2="1" y2="0"><stop offset="0" stop-color="#fff" stop-opacity="0"/><stop offset=".5" stop-color="#fff" stop-opacity=".06"/><stop offset="1" stop-color="#fff" stop-opacity="0"/><animateTransform attributeName="gradientTransform" type="translate" values="-1 0;1 0;1 0" keyTimes="0;.35;1" dur="7s" begin="2.4s" repeatCount="indefinite"/></linearGradient></defs>
<g>
  <rect x="0" y="0" width="490.0" height="205.0" rx="18" fill="#0d1117"/>
  <rect x="1" y="1" width="488.0" height="203.0" rx="17" fill="none" stroke="#c4b5fd" stroke-opacity=".55" stroke-width="1.5"/>
  <rect x="0" y="0" width="490.0" height="205.0" rx="18" fill="url(#shine0)"/>
  <g transform="translate(28 38)"><rect x="10" y="40" width="64" height="52" rx="10" fill="#c4b5fd"/>
<path d="M22 42 V26 a20 20 0 0 1 40 0 V42" fill="none" stroke="#c4b5fd" stroke-width="9" stroke-linecap="round">
  <animateTransform attributeName="transform" type="translate" values="0 0;0 0;0 -9;0 -9;0 0" keyTimes="0;.55;.62;.9;1" dur="4s" repeatCount="indefinite"/></path>
<circle cx="42" cy="62" r="7" fill="#0d1117"/><rect x="39" y="64" width="6" height="14" rx="3" fill="#0d1117"/>
<circle cx="42" cy="62" r="16" fill="#c4b5fd" opacity="0"><animate attributeName="opacity" values="0;0;.35;0" keyTimes="0;.9;.95;1" dur="4s" repeatCount="indefinite"/></circle></g>
  <text x="132" y="58" font-family="'Segoe UI', 'Helvetica Neue', Helvetica, Arial, sans-serif" font-size="22" font-weight="700" fill="#c4b5fd">Zero-Knowledge</text>
  <text x="132" y="92" font-family="'Segoe UI', 'Helvetica Neue', Helvetica, Arial, sans-serif" font-size="16" fill="#c9d1d9">Verschlüsselt wird im Browser –</text><text x="132" y="116" font-family="'Segoe UI', 'Helvetica Neue', Helvetica, Arial, sans-serif" font-size="16" fill="#c9d1d9">der Server sieht nur Rauschen.</text><text x="132" y="140" font-family="'Segoe UI', 'Helvetica Neue', Helvetica, Arial, sans-serif" font-size="16" fill="#c9d1d9">Standardbibliothek statt Abhängigkeiten.</text>
</g><g>
  <rect x="510.0" y="0" width="490.0" height="205.0" rx="18" fill="#0d1117"/>
  <rect x="511.0" y="1" width="488.0" height="203.0" rx="17" fill="none" stroke="#fdba74" stroke-opacity=".55" stroke-width="1.5"/>
  <rect x="510.0" y="0" width="490.0" height="205.0" rx="18" fill="url(#shine1)"/>
  <g transform="translate(538.0 38)"><g><animateTransform attributeName="transform" type="translate" values="0 0;0 -3;0 0" dur="1.4s" repeatCount="indefinite"/><rect x="34" y="18" width="8" height="8" fill="#fb923c"><animate attributeName="opacity" values="1;.2;1" dur="0.64s" repeatCount="indefinite"/></rect><rect x="26" y="26" width="8" height="8" fill="#fb923c"><animate attributeName="opacity" values="1;.2;1" dur="0.83s" repeatCount="indefinite"/></rect><rect x="34" y="26" width="8" height="8" fill="#fb923c"><animate attributeName="opacity" values="1;.2;1" dur="0.72s" repeatCount="indefinite"/></rect><rect x="50" y="26" width="8" height="8" fill="#fb923c"><animate attributeName="opacity" values="1;.2;1" dur="0.86s" repeatCount="indefinite"/></rect><rect x="26" y="34" width="8" height="8" fill="#fb923c"><animate attributeName="opacity" values="1;.2;1" dur="0.88s" repeatCount="indefinite"/></rect><rect x="34" y="34" width="8" height="8" fill="#fb923c"><animate attributeName="opacity" values="1;.2;1" dur="0.54s" repeatCount="indefinite"/></rect><rect x="42" y="34" width="8" height="8" fill="#fb923c"><animate attributeName="opacity" values="1;.2;1" dur="0.51s" repeatCount="indefinite"/></rect><rect x="50" y="34" width="8" height="8" fill="#fb923c"><animate attributeName="opacity" values="1;.2;1" dur="1.00s" repeatCount="indefinite"/></rect><rect x="18" y="42" width="8" height="8" fill="#fb923c"><animate attributeName="opacity" values="1;.2;1" dur="0.66s" repeatCount="indefinite"/></rect><rect x="26" y="42" width="8" height="8" fill="#fb923c"><animate attributeName="opacity" values="1;.2;1" dur="0.64s" repeatCount="indefinite"/></rect><rect x="34" y="42" width="8" height="8" fill="#fb923c"><animate attributeName="opacity" values="1;.2;1" dur="1.10s" repeatCount="indefinite"/></rect><rect x="42" y="42" width="8" height="8" fill="#fb923c"><animate attributeName="opacity" values="1;.2;1" dur="0.78s" repeatCount="indefinite"/></rect><rect x="50" y="42" width="8" height="8" fill="#fb923c"><animate attributeName="opacity" values="1;.2;1" dur="1.00s" repeatCount="indefinite"/></rect><rect x="58" y="42" width="8" height="8" fill="#fb923c"><animate attributeName="opacity" values="1;.2;1" dur="0.79s" repeatCount="indefinite"/></rect><rect x="18" y="50" width="8" height="8" fill="#fb923c"><animate attributeName="opacity" values="1;.2;1" dur="0.88s" repeatCount="indefinite"/></rect><rect x="26" y="50" width="8" height="8" fill="#fb923c"><animate attributeName="opacity" values="1;.2;1" dur="0.59s" repeatCount="indefinite"/></rect><rect x="34" y="50" width="8" height="8" fill="#fde047"></rect><rect x="42" y="50" width="8" height="8" fill="#fde047"></rect><rect x="50" y="50" width="8" height="8" fill="#fb923c"><animate attributeName="opacity" values="1;.2;1" dur="0.88s" repeatCount="indefinite"/></rect><rect x="58" y="50" width="8" height="8" fill="#fb923c"><animate attributeName="opacity" values="1;.2;1" dur="1.02s" repeatCount="indefinite"/></rect><rect x="10" y="58" width="8" height="8" fill="#fb923c"></rect><rect x="18" y="58" width="8" height="8" fill="#fb923c"></rect><rect x="26" y="58" width="8" height="8" fill="#fde047"></rect><rect x="34" y="58" width="8" height="8" fill="#fde047"></rect><rect x="42" y="58" width="8" height="8" fill="#fde047"></rect><rect x="50" y="58" width="8" height="8" fill="#fde047"></rect><rect x="58" y="58" width="8" height="8" fill="#fb923c"></rect><rect x="66" y="58" width="8" height="8" fill="#fb923c"></rect><rect x="10" y="66" width="8" height="8" fill="#fb923c"></rect><rect x="18" y="66" width="8" height="8" fill="#fb923c"></rect><rect x="26" y="66" width="8" height="8" fill="#fde047"></rect><rect x="34" y="66" width="8" height="8" fill="#fff7ed"></rect><rect x="42" y="66" width="8" height="8" fill="#fff7ed"></rect><rect x="50" y="66" width="8" height="8" fill="#fde047"></rect><rect x="58" y="66" width="8" height="8" fill="#fb923c"></rect><rect x="66" y="66" width="8" height="8" fill="#fb923c"></rect><rect x="18" y="74" width="8" height="8" fill="#fb923c"></rect><rect x="26" y="74" width="8" height="8" fill="#fde047"></rect><rect x="34" y="74" width="8" height="8" fill="#fff7ed"></rect><rect x="42" y="74" width="8" height="8" fill="#fff7ed"></rect><rect x="50" y="74" width="8" height="8" fill="#fde047"></rect><rect x="58" y="74" width="8" height="8" fill="#fb923c"></rect><rect x="26" y="82" width="8" height="8" fill="#fb923c"></rect><rect x="34" y="82" width="8" height="8" fill="#fb923c"></rect><rect x="42" y="82" width="8" height="8" fill="#fb923c"></rect><rect x="50" y="82" width="8" height="8" fill="#fb923c"></rect></g></g>
  <text x="642.0" y="58" font-family="'Segoe UI', 'Helvetica Neue', Helvetica, Arial, sans-serif" font-size="22" font-weight="700" fill="#fdba74">Prozedurale Spiele</text>
  <text x="642.0" y="92" font-family="'Segoe UI', 'Helvetica Neue', Helvetica, Arial, sans-serif" font-size="16" fill="#c9d1d9">Roguelites in reinem Python –</text><text x="642.0" y="116" font-family="'Segoe UI', 'Helvetica Neue', Helvetica, Arial, sans-serif" font-size="16" fill="#c9d1d9">Grafik und Sound werden berechnet,</text><text x="642.0" y="140" font-family="'Segoe UI', 'Helvetica Neue', Helvetica, Arial, sans-serif" font-size="16" fill="#c9d1d9">nicht aus Dateien geladen.</text>
</g><g>
  <rect x="0" y="225.0" width="490.0" height="205.0" rx="18" fill="#0d1117"/>
  <rect x="1" y="226.0" width="488.0" height="203.0" rx="17" fill="none" stroke="#7dd3fc" stroke-opacity=".55" stroke-width="1.5"/>
  <rect x="0" y="225.0" width="490.0" height="205.0" rx="18" fill="url(#shine2)"/>
  <g transform="translate(28 263.0)"><rect x="6" y="6" width="92" height="84" rx="10" fill="none" stroke="#7dd3fc" stroke-opacity=".25"/>
<path d="M10 80 L24 72 L38 76 L52 54 L66 60 L80 36 L94 42" fill="none" stroke="#7dd3fc" stroke-width="4" stroke-linecap="round" stroke-linejoin="round" stroke-dasharray="140" stroke-dashoffset="140">
  <animate attributeName="stroke-dashoffset" values="140;0;0;140" keyTimes="0;.45;.85;1" dur="5s" repeatCount="indefinite"/></path>
<circle cx="94" cy="42" r="5" fill="#7dd3fc" opacity="0"><animate attributeName="opacity" values="0;0;1;1;0" keyTimes="0;.42;.47;.85;.9" dur="5s" repeatCount="indefinite"/></circle></g>
  <text x="132" y="283.0" font-family="'Segoe UI', 'Helvetica Neue', Helvetica, Arial, sans-serif" font-size="22" font-weight="700" fill="#7dd3fc">Daten &amp; Märkte</text>
  <text x="132" y="317.0" font-family="'Segoe UI', 'Helvetica Neue', Helvetica, Arial, sans-serif" font-size="16" fill="#c9d1d9">Öffentliche Daten, eigene Modelle –</text><text x="132" y="341.0" font-family="'Segoe UI', 'Helvetica Neue', Helvetica, Arial, sans-serif" font-size="16" fill="#c9d1d9">und eine ehrliche Rückrechnung,</text><text x="132" y="365.0" font-family="'Segoe UI', 'Helvetica Neue', Helvetica, Arial, sans-serif" font-size="16" fill="#c9d1d9">bevor irgendwer irgendwas glaubt.</text>
</g><g>
  <rect x="510.0" y="225.0" width="490.0" height="205.0" rx="18" fill="#0d1117"/>
  <rect x="511.0" y="226.0" width="488.0" height="203.0" rx="17" fill="none" stroke="#f0abfc" stroke-opacity=".55" stroke-width="1.5"/>
  <rect x="510.0" y="225.0" width="490.0" height="205.0" rx="18" fill="url(#shine3)"/>
  <g transform="translate(538.0 263.0)"><rect x="18" y="22" width="68" height="18" rx="4" fill="#1f2937" stroke="#f0abfc" stroke-opacity=".5"/><circle cx="74" cy="31" r="3.5" fill="#4ade80"><animate attributeName="opacity" values="1;.15;1" dur="0.70s" repeatCount="indefinite"/></circle><rect x="26" y="29" width="26" height="4" rx="2" fill="#f0abfc" opacity=".6"/><rect x="18" y="46" width="68" height="18" rx="4" fill="#1f2937" stroke="#f0abfc" stroke-opacity=".5"/><circle cx="74" cy="55" r="3.5" fill="#4ade80"><animate attributeName="opacity" values="1;.15;1" dur="1.15s" repeatCount="indefinite"/></circle><rect x="26" y="53" width="26" height="4" rx="2" fill="#f0abfc" opacity=".6"/><rect x="18" y="70" width="68" height="18" rx="4" fill="#1f2937" stroke="#f0abfc" stroke-opacity=".5"/><circle cx="74" cy="79" r="3.5" fill="#4ade80"><animate attributeName="opacity" values="1;.15;1" dur="1.60s" repeatCount="indefinite"/></circle><rect x="26" y="77" width="26" height="4" rx="2" fill="#f0abfc" opacity=".6"/><g fill="#e0e7ff" opacity=".9"><animateTransform attributeName="transform" type="translate" values="0 0;6 0;0 0" dur="6s" repeatCount="indefinite"/>
<circle cx="52" cy="4" r="8"/><circle cx="63" cy="0" r="10"/><circle cx="74" cy="5" r="7"/><rect x="45" y="4" width="36" height="8" rx="4"/></g></g>
  <text x="642.0" y="283.0" font-family="'Segoe UI', 'Helvetica Neue', Helvetica, Arial, sans-serif" font-size="22" font-weight="700" fill="#f0abfc">Self-Hosting</text>
  <text x="642.0" y="317.0" font-family="'Segoe UI', 'Helvetica Neue', Helvetica, Arial, sans-serif" font-size="16" fill="#c9d1d9">Docker, Postgres, eigene VM –</text><text x="642.0" y="341.0" font-family="'Segoe UI', 'Helvetica Neue', Helvetica, Arial, sans-serif" font-size="16" fill="#c9d1d9">alles läuft im Heimnetz,</text><text x="642.0" y="365.0" font-family="'Segoe UI', 'Helvetica Neue', Helvetica, Arial, sans-serif" font-size="16" fill="#c9d1d9">mit Backups und Totmann-Schalter.</text>
</g>
</svg>
